<?xml version="1.0" encoding="utf-8"?>
<!-- Generator: Adobe Illustrator 20.1.0, SVG Export Plug-In . SVG Version: 6.00 Build 0)  -->
<svg version="1.1" id="Capa_1" xmlns="http://www.w3.org/2000/svg" xmlns:xlink="http://www.w3.org/1999/xlink" x="0px" y="0px"
	 viewBox="0 0 400 400" style="enable-background:new 0 0 400 400;" xml:space="preserve">
<style type="text/css">
	.st0{fill:#225668;stroke:#1C3B44;stroke-width:15;stroke-miterlimit:10;}
	.st1{fill:#39798E;}
	.st2{fill:#1C3B44;}
	.st3{clip-path:url(#SVGID_2_);fill:#FFFFFF;}
	.st4{clip-path:url(#SVGID_2_);fill:#7F405E;stroke:#272428;stroke-width:2;stroke-miterlimit:10;}
	.st5{clip-path:url(#SVGID_2_);}
	.st6{opacity:0.12;clip-path:url(#SVGID_2_);fill:#FFFFFF;}
</style>
<circle class="st0" cx="199.8" cy="200.8" r="187.8"/>
<g>
	<polygon class="st1" points="147.3,62.9 321.1,200.3 141.1,332.9 	"/>
	<g>
		<path class="st2" d="M142,68.2c19.6,15.5,39.2,31,58.8,46.5c31.2,24.7,62.4,49.3,93.6,74c7.1,5.6,14.3,11.3,21.4,16.9
			c0.5-3.9,1-7.9,1.5-11.8c-20.2,14.9-40.5,29.8-60.7,44.8c-32.3,23.8-64.6,47.6-96.9,71.4c-7.4,5.5-14.9,11-22.3,16.5
			c3.8,2.2,7.5,4.3,11.3,6.5c0.7-30.4,1.4-60.9,2.1-91.3c1.1-48.5,2.2-97,3.3-145.4c0.3-11.1,0.5-22.2,0.8-33.2
			c0.2-9.7-14.8-9.7-15,0c-0.7,30.4-1.4,60.9-2.1,91.3c-1.1,48.5-2.2,97-3.3,145.4c-0.3,11.1-0.5,22.2-0.8,33.2
			c-0.1,5.3,6.6,9.9,11.3,6.5c20.2-14.9,40.5-29.8,60.7-44.8c32.3-23.8,64.6-47.6,96.9-71.4c7.4-5.5,14.9-11,22.3-16.5
			c3.4-2.5,5.7-8.5,1.5-11.8c-19.6-15.5-39.2-31-58.8-46.5c-31.2-24.7-62.4-49.3-93.6-74c-7.1-5.6-14.3-11.3-21.4-16.9
			c-3.2-2.5-7.5-3.1-10.6,0C139.4,60.2,138.8,65.7,142,68.2z"/>
	</g>
</g>
<g>
	<defs>
		<circle id="SVGID_1_" cx="208.5" cy="197.9" r="45"/>
	</defs>
	<clipPath id="SVGID_2_">
		<use xlink:href="#SVGID_1_"  style="overflow:visible;"/>
	</clipPath>
	<circle class="st3" cx="208.5" cy="197.9" r="45"/>
	<circle class="st4" cx="199.5" cy="188" r="40"/>
	<circle class="st5" cx="193" cy="187" r="30"/>
	<circle class="st6" cx="208.5" cy="228" r="45"/>
	<circle class="st3" cx="188.5" cy="185" r="7.5"/>
	<use xlink:href="#SVGID_1_"  style="overflow:visible;fill:none;stroke:#272428;stroke-width:13;stroke-miterlimit:10;"/>
</g>
</svg>
